<svg width="255" height="78" viewBox="0 0 255 78" fill="none" xmlns="http://www.w3.org/2000/svg">
<path d="M133.625 11.7517V22.4329H119.124V66.4829H105.792V22.4329H91.2905V11.7517H133.625Z" fill="#1D2258"/>
<path d="M159.724 11.7517V66.4829H146.392V11.7517H159.724Z" fill="#1D2258"/>
<path d="M188.794 56.1915H206.258V66.4829H175.462V11.7517H188.794V56.1915Z" fill="#1D2258"/>
<path d="M250.591 11.7517V22.4329H236.089V66.4829H222.757V22.4329H208.256V11.7517H250.591Z" fill="#1D2258"/>
<path fill-rule="evenodd" clip-rule="evenodd" d="M46.907 69.5079C51.6575 69.5079 56.148 68.3903 60.1288 66.4035C54.9278 71.1946 47.712 74 39.7196 74C23.8034 74 10.9702 62.8886 10.9702 47.0474C10.9702 36.5776 16.567 27.4142 24.9326 22.3871C20.1671 26.3922 17.2591 32.1972 17.2591 39.8601C17.2591 56.2341 30.5329 69.5079 46.907 69.5079Z" fill="#016FED"/>
<path fill-rule="evenodd" clip-rule="evenodd" d="M69.3 31.1395C69.3 26.389 68.1823 21.8985 66.1956 17.9177C70.9866 23.1187 73.792 30.3345 73.792 38.3269C73.7921 54.2431 62.6806 67.0763 46.8395 67.0763C36.3697 67.0763 27.2063 61.4795 22.1792 53.1139C26.1843 57.8794 31.9892 60.7874 39.6521 60.7874C56.0262 60.7874 69.3 47.5136 69.3 31.1395Z" fill="#016FED"/>
<path fill-rule="evenodd" clip-rule="evenodd" d="M30.6768 8.49643C25.9262 8.49643 21.8852 9.45504 17.9043 11.4418C23.1054 6.65076 29.8718 4.00001 37.8642 4.00001C54.2903 4.00001 66.8682 15.3659 66.8682 31.207C66.8682 41.6768 61.0167 50.8402 52.6511 55.8673C57.4166 51.8622 60.5792 46.0572 60.5792 38.3943C60.5792 21.3244 47.0508 8.49642 30.6768 8.49643Z" fill="#016FED"/>
<path fill-rule="evenodd" clip-rule="evenodd" d="M8.4922 47.3C8.4922 52.0506 9.87215 56.541 11.8589 60.5219C7.06787 55.3209 4.0001 48.1051 4.0001 40.1127C4.0001 24.1964 14.7811 11.178 31.215 11.178C41.6848 11.178 50.6321 16.7378 55.6592 25.1035C51.6541 20.338 46.0652 17.4669 38.4023 17.4669C21.5193 17.4669 8.4922 30.926 8.4922 47.3Z" fill="#016FED"/>
</svg>
